# xmcd
#
# Track frame offsets:
# 225
# 13709
# 30601
# 41911
# 57832
# 67193
# 79052
# 92852
# 100048
# 107791
# 119722
# 129412
# 140895
# 156210
# 167697
# 181936
# 196731
#
# Disc length: 2850 seconds
#
#
# Revision: 4
# Processed by: cddbd v1.5.1PL0 Copyright (c) Steve Scherf et al.
# Submitted via: FreeRIP 2.93 
#
DISCID=f00b1f11
DTITLE=Country Gold&Trucker Hits-High Noon
DYEAR=2002
DGENRE=Country
TTITLE0=Glen Campbell - Rhinestone Cowboy
TTITLE1=Lynn Anderson - Blue Bayou
TTITLE2=Tammy Wynette - D.I.V.O.R.C.E.
TTITLE3=Connie Francis - It Doesn't Matter Anymore
TTITLE4=George Jones - The Race Is On
TTITLE5=Frankie Lane - High Noon
TTITLE6=Anne Murray - Last Thing On My Mind
TTITLE7=Dolly Parton - Puppy Love
TTITLE8=Jim Reeves - The Oklahoma Hills
TTITLE9=Stonewall Jackson - Waterloo
TTITLE10=Conway Twitty - Eversince You Went Away
TTITLE11=Waylon Jennings - Crying
TTITLE12=Boxcar Willie - Box Car Blues
TTITLE13=Don Williams and The Pozzo Seco Singers - Storybook Children
TTITLE14=Willie Nelson - Will You Remember
TTITLE15=Roger Miller - Me And Bobby McGee
TTITLE16=Kenny Rogers - Something's Burning
EXTD=YEAR: 2002 ID3G: 2
EXTT0=
EXTT1=
EXTT2=
EXTT3=
EXTT4=
EXTT5=
EXTT6=
EXTT7=
EXTT8=
EXTT9=
EXTT10=
EXTT11=
EXTT12=
EXTT13=
EXTT14=
EXTT15=
EXTT16=
PLAYORDER=
